# xmcd CD database file
#
# Track frame offsets:
#	150
#	34363
#	77538
#	123153
#
# Disc length: 2169 seconds
#
# Revision: 0
# Processed by: cddbd v1.4PL0 Copyright (c) Steve Scherf et al.
# Submitted via: CDex 1.50beta10
#
DISCID=27087704
DTITLE=Grover Washington Jr - Live At the Bijou (2/2)
DYEAR=1978
DGENRE=Jazz
TTITLE0=Summer song
TTITLE1=Juffure
TTITLE2=Sausalito
TTITLE3=Funkfoot
EXTD=YEAR: 1978
EXTT0=
EXTT1=
EXTT2=
EXTT3=
PLAYORDER=
